<svg xmlns="http://www.w3.org/2000/svg" viewBox="0 0 259.69 129.26"><defs><style>.cls-1{fill:#009edb;fill-rule:evenodd;}.cls-2{fill:#ec008c;}</style></defs><title>Asset 1</title><g id="Layer_2" data-name="Layer 2"><g id="Layer_1-2" data-name="Layer 1"><path class="cls-1" d="M66.77,75.78a18,18,0,0,0,16,15C93.73,91.7,90.34,88,98.39,96c9.72,9.6,11.27,14.21,17.35,8.12,4.37-4.38,9.88-7.93,5.55-12.34-1.76-1.79-3.42-3.41-5.19-5.19-.95-.95-2.2-1.53-1.59-3.55.21-.7,1.24-2.34,1.67-3.39,2.06-5,1.31-13.49,1.31-19.56V18.84c0-6.72-2.81-11.76-6.41-14.47C105.52.18,103,.21,94.55.21,87.79.21,81.25-.57,76,2.32c-12.07,6.61-9.4,19.06-9.41,32.24,0,6.53-.41,37.39.21,41.22Zm24-52.86h2.49a1.77,1.77,0,0,1,1.76,1.76V66.77a1.77,1.77,0,0,1-1.76,1.76H90.8A1.77,1.77,0,0,1,89,66.77V24.69a1.77,1.77,0,0,1,1.76-1.76ZM211.79.41c-2.6.88-3.22,2.37-3.21,5.68.08,26.37-.24,53.3,0,79.49.06,6.89,6.46,5.3,12.6,5.3H239c6.6,0,9.68-.67,13.84-3.92,8.37-6.54,6.74-15.73,6.74-28.68V23c0-6.71.25-9.72-2.92-14.69A17.27,17.27,0,0,0,246.32.8C243.55,0,214.06-.35,211.79.41ZM235.63,23h-4.39V68.37h4.39A1.34,1.34,0,0,0,237,67V24.33A1.34,1.34,0,0,0,235.63,23ZM151.19,67.76c-1.36.44-5,1.09-5.28-.88V8.17c0-4.7-.06-8-5.06-8-16.37-.12-17.66-1.71-17.65,8.58q0,26.24,0,52.49c0,10.49-1.79,22.83,11.08,28.21,3.89,1.63,6.9,1.35,11.59,1.35,9.84,0,15.48,1.09,22-4.31,5.87-4.88,6.3-10,6.3-19.91V14.39C174.14-.72,175.49.15,161.87.18c-4.37,0-8.74-.91-10.14,2.88-1,2.65.43,61.42-.54,64.7ZM.33,75.78a17.93,17.93,0,0,0,16,15c2.46.2,13.48.37,15.17-.33,3.73-1.53,2.65-8.12,2.64-12.86,0-6.23.59-9.52-6.3-9.47A27,27,0,0,1,24,68c-1.43-.3-1.2-1.07-1.18-2.61,0-2.57,0-5.15,0-7.73l0-46.86C22.8,5.7,23.84.3,18.05.18,15.27.12,4.43-.23,2.73.55.78,1.46.12,3.06.12,5.79c0,7.43-.38,66.29.21,70ZM38.89,87.65c1.22,4.17,6.35,3.23,10.88,3.23,4.36,0,10,1,11.39-2.81.65-1.8.3-61.44.3-70.71C61.46-.4,63.4.21,50.36.18,45.79.17,40.46-.87,39,3.08,38.35,5,38.75,27,38.75,31c0,6.15-.35,55,.14,56.64ZM183.32.42c-4.28,1.46-3.17,6.08-3.17,11V82.31c0,5.48-.29,8.57,5.73,8.58,2.43,0,12.47.28,14-.23,4-1.36,3-6.57,3-11V8.76c0-5.44.28-8.6-5.69-8.58-2.73,0-12-.38-13.85.24Z"/><path class="cls-2" d="M139.89,128.59V105.21h-4.84V100.6h13.89v4.62H144.1v23.37Zm13.12,0v-28h11.61v4.65h-7.43v6.48h6.91v4.43h-6.91v7.71h7.61v4.73Zm16.74,0v-28H174v23.23h7.61v4.76Zm16.52,0v-28h11.61v4.65h-7.43v6.48h6.91v4.43h-6.91v7.71H198v4.73Zm25.72-10h4.09c0,.12,0,.3,0,.53s0,.42,0,.56q0,4.85-1.65,7.2a5.74,5.74,0,0,1-5.05,2.35,6.85,6.85,0,0,1-2.78-.52,5.18,5.18,0,0,1-2-1.61,9,9,0,0,1-1.61-4,56,56,0,0,1-.47-8.87,66.81,66.81,0,0,1,.28-6.87,12.6,12.6,0,0,1,.87-3.81,6.47,6.47,0,0,1,2.26-2.79,6.3,6.3,0,0,1,3.45-.86,5.7,5.7,0,0,1,5,2.21q1.56,2.22,1.58,7.13H211.9v-.67a7.47,7.47,0,0,0-.6-3.39,1.93,1.93,0,0,0-1.81-1.12,2.05,2.05,0,0,0-2.06,1.54q-.55,1.55-.55,8.54,0,7.56.54,9.19a2.05,2.05,0,0,0,2,1.64,2,2,0,0,0,2-1.28A13.5,13.5,0,0,0,212,119v-.38Zm13.18-4q0,6.91.65,8.7a2.42,2.42,0,0,0,2.42,1.79,2.37,2.37,0,0,0,2.37-1.76q.64-1.75.64-8.73c0-4.65-.22-7.57-.65-8.76a2.49,2.49,0,0,0-4.78,0c-.43,1.19-.65,4.11-.65,8.76Zm-4.3,0a59.22,59.22,0,0,1,.34-7.12,12.11,12.11,0,0,1,1.06-4,6.54,6.54,0,0,1,2.35-2.73,8.29,8.29,0,0,1,7.18,0,6.63,6.63,0,0,1,2.36,2.73,12.42,12.42,0,0,1,1,4,60,60,0,0,1,.33,7.09,59.06,59.06,0,0,1-.34,7.08,12.91,12.91,0,0,1-1,4,6.64,6.64,0,0,1-2.36,2.72,8.29,8.29,0,0,1-7.18,0,6.55,6.55,0,0,1-2.35-2.72,12.11,12.11,0,0,1-1.06-4,59.2,59.2,0,0,1-.34-7.12Zm19.94,14v-28h6.34l3.1,18.12,3.1-18.12h6.34v28h-4l.09-24.83-4.21,24.83H249l-4.22-24.83.1,24.83Z"/></g></g></svg>